<?xml version="1.0" encoding="utf-8"?>
<!-- Generator: Adobe Illustrator 16.0.0, SVG Export Plug-In . SVG Version: 6.00 Build 0)  -->
<!DOCTYPE svg PUBLIC "-//W3C//DTD SVG 1.1//EN" "http://www.w3.org/Graphics/SVG/1.1/DTD/svg11.dtd">
<svg version="1.1" id="Layer_1" xmlns="http://www.w3.org/2000/svg" xmlns:xlink="http://www.w3.org/1999/xlink" x="0px" y="0px"
	 width="700px" height="700px" viewBox="0 0 700 700" enable-background="new 0 0 700 700" xml:space="preserve">
<g>
	<path d="M131.001,569.083v32.861h-26.404c-3.629,0-6.568-2.94-6.568-6.569v-26.292H131.001L131.001,569.083z M568.999,602h26.466
		c3.595,0,6.507-2.918,6.507-6.507v-26.04h-32.973V602z M131.001,98h-26.404c-3.629,0-6.568,2.923-6.568,6.535v26.438h32.973V98z
		 M601.708,131.001v-26.332c0-3.595-2.917-6.507-6.507-6.507h-26.466v32.833h32.973V131.001z M131.001,232.725
		c0-3.623-2.94-6.568-6.569-6.568h-19.835c-3.629,0-6.568,2.94-6.568,6.568v19.835c0,3.623,2.939,6.569,6.568,6.569h19.835
		c3.629,0,6.569-2.94,6.569-6.569V232.725z M131.001,339.831c0-3.624-2.94-6.569-6.569-6.569h-19.835
		c-3.629,0-6.568,2.94-6.568,6.569v19.835c0,3.623,2.939,6.568,6.568,6.568h19.835c3.629,0,6.569-2.939,6.569-6.568V339.831z
		 M131.001,446.941c0-3.629-2.94-6.574-6.569-6.574h-19.835c-3.629,0-6.568,2.939-6.568,6.574v19.83
		c0,3.629,2.939,6.568,6.568,6.568h19.835c3.629,0,6.569-2.935,6.569-6.568V446.941z M601.972,232.725
		c0-3.623-2.94-6.568-6.568-6.568h-19.836c-3.629,0-6.568,2.94-6.568,6.568v19.835c0,3.623,2.939,6.569,6.568,6.569h19.836
		c3.628,0,6.568-2.94,6.568-6.569V232.725z M601.972,339.831c0-3.624-2.94-6.569-6.568-6.569h-19.836
		c-3.629,0-6.568,2.94-6.568,6.569v19.835c0,3.623,2.939,6.568,6.568,6.568h19.836c3.628,0,6.568-2.939,6.568-6.568V339.831z
		 M601.972,446.941c0-3.629-2.94-6.574-6.568-6.574h-19.836c-3.629,0-6.568,2.939-6.568,6.574v19.83
		c0,3.629,2.939,6.568,6.568,6.568h19.836c3.628,0,6.568-2.935,6.568-6.568V446.941z M233.587,569.027
		c-3.629,0-6.568,2.939-6.568,6.568v19.836c0,3.623,2.939,6.568,6.568,6.568h19.835c3.629,0,6.569-2.94,6.569-6.568v-19.836
		c0-3.623-2.94-6.568-6.569-6.568H233.587z M340.692,569.027c-3.629,0-6.568,2.939-6.568,6.568v19.836
		c0,3.623,2.939,6.568,6.568,6.568h19.835c3.623,0,6.569-2.94,6.569-6.568v-19.836c0-3.623-2.94-6.568-6.569-6.568H340.692z
		 M447.798,569.027c-3.629,0-6.568,2.939-6.568,6.568v19.836c0,3.623,2.939,6.568,6.568,6.568h19.835
		c3.629,0,6.569-2.94,6.569-6.568v-19.836c0-3.623-2.94-6.568-6.569-6.568H447.798z M233.587,98c-3.629,0-6.568,2.94-6.568,6.569
		v19.835c0,3.624,2.939,6.569,6.568,6.569h19.835c3.629,0,6.569-2.94,6.569-6.569v-19.835c-0.006-3.629-2.945-6.569-6.574-6.569
		H233.587z M340.11,98c-3.629,0-6.569,2.94-6.569,6.569v19.835c0,3.624,2.94,6.569,6.569,6.569h19.835
		c3.629,0,6.568-2.94,6.568-6.569v-19.835c0-3.629-2.939-6.569-6.568-6.569H340.11z M447.798,98c-3.629,0-6.568,2.94-6.568,6.569
		v19.835c0,3.624,2.939,6.569,6.568,6.569h19.835c3.629,0,6.569-2.94,6.569-6.569v-19.835c0-3.629-2.945-6.569-6.574-6.569H447.798z
		 M484.305,425.701V274.299c0-32.284-26.259-58.542-58.543-58.542H274.366c-32.278,0-58.542,26.258-58.542,58.542v151.396
		c0,32.283,26.264,58.542,58.542,58.542h151.401C458.046,484.243,484.305,457.979,484.305,425.701z M425.768,248.729
		c14.101,0,25.569,11.469,25.569,25.57v151.396c0,14.106-11.469,25.569-25.569,25.569H274.366
		c-14.101,0-25.569-11.469-25.569-25.569V274.299c0-14.106,11.475-25.57,25.569-25.57H425.768z"/>
</g>
</svg>
