<?xml version="1.0" encoding="utf-8"?>
<!-- Generator: Adobe Illustrator 16.0.0, SVG Export Plug-In . SVG Version: 6.00 Build 0)  -->
<!DOCTYPE svg PUBLIC "-//W3C//DTD SVG 1.1//EN" "http://www.w3.org/Graphics/SVG/1.1/DTD/svg11.dtd">
<svg version="1.1" id="Layer_1" xmlns="http://www.w3.org/2000/svg" xmlns:xlink="http://www.w3.org/1999/xlink" x="0px" y="0px"
	 width="960px" height="560px" viewBox="0 0 960 560" enable-background="new 0 0 960 560" xml:space="preserve">
<g>
	<path fill="#B3B3B3" d="M563.388,143.696c44.562,30.53,88.306,60.748,133.923,88.198c-10.291-0.72-20.255-1.983-29.808-5.345
		c-10.698-3.769-22.056-4.762-32.919-7.855c-5.319-1.514-10.819-2.44-16.061-4.163c-6.457-2.121-13.217-2.649-19.742-4.357
		c-2.234-0.585-4.969-2.353-6.584,1.453c-0.462,1.099-1.749,0.146-2.249-0.723c-0.688-1.197-1.249-2.469-1.798-3.735
		c-7.164-16.466-14.515-32.86-20.279-49.886C566.488,153.192,563.094,149.823,563.388,143.696z"/>
</g>
<g>
	<path fill="#333333" d="M705.262,242.236c-16.17,1.27-31.748,1.84-47.167,3.968c-12.137,1.677-24.292,3.062-36.458,4.483
		c-18.771,2.193-37.509,4.832-56.255,7.313c-11.995,1.587-23.903,3.8-36.013,4.463c-0.935,0.049-2.208,0.485-2.646-0.467
		c-0.593-1.282,0.688-1.966,1.601-2.528c10.139-6.22,20.53-12.06,30.383-18.708c9.78-6.593,21.087-10.336,30.64-17.242
		c1.829-1.32,3.967-1.026,6.028-0.978c12.385,0.284,24.339,3.328,36.422,5.608c11.261,2.123,22.361,4.974,33.83,6.129
		c8.503,0.859,16.851,3.184,25.312,4.571C695.596,239.616,700.45,239.379,705.262,242.236z"/>
</g>
<polygon fill="#808080" points="555.5,143.696 578.5,213.5 520.5,256.5 "/>
<polygon fill="#333333" points="366.5,269.5 407.5,297.5 265.5,347.5 "/>
<polygon fill="#B3B3B3" points="378.5,269.5 497.5,269.5 592.5,426.5 "/>
<polygon fill="#808080" points="520.5,276.5 705.262,256.5 620.5,450.5 "/>
</svg>
