<?xml version="1.0" encoding="utf-8"?>
<!-- Generator: Adobe Illustrator 16.0.0, SVG Export Plug-In . SVG Version: 6.00 Build 0)  -->
<!DOCTYPE svg PUBLIC "-//W3C//DTD SVG 1.1//EN" "http://www.w3.org/Graphics/SVG/1.1/DTD/svg11.dtd">
<svg version="1.1" id="Layer_1" xmlns="http://www.w3.org/2000/svg" xmlns:xlink="http://www.w3.org/1999/xlink" x="0px" y="0px"
	 width="700px" height="700px" viewBox="0 0 700 700" enable-background="new 0 0 700 700" xml:space="preserve">
<path d="M230.585,316.238c0,4.62-3.276,10.287-7.274,12.6l-50.629,29.227c-3.999,2.312-10.55,2.312-14.549,0l-50.624-29.227
	c-3.999-2.312-7.274-7.98-7.274-12.6v-58.447c0-4.62,3.276-10.288,7.274-12.6l50.624-29.227c3.999-2.312,10.55-2.312,14.549,0
	l50.629,29.227c3.999,2.312,7.274,7.98,7.274,12.6V316.238z"/>
<path d="M378.006,316.238c0,4.62-3.276,10.287-7.274,12.6l-50.63,29.227c-3.998,2.312-10.551,2.312-14.549,0l-50.624-29.227
	c-3.999-2.312-7.274-7.98-7.274-12.6v-58.447c0-4.62,3.276-10.288,7.274-12.6l50.624-29.227c3.998-2.312,10.551-2.312,14.549,0
	l50.63,29.227c3.998,2.312,7.274,7.98,7.274,12.6V316.238z"/>
<path d="M304.304,188.479c0,4.62-3.271,10.288-7.274,12.6l-50.63,29.232c-4.004,2.313-10.545,2.313-14.549,0l-50.624-29.232
	c-3.998-2.312-7.274-7.98-7.274-12.6v-58.453c0-4.62,3.276-10.287,7.274-12.6L231.851,88.2c3.999-2.313,10.55-2.313,14.549,0
	l50.63,29.226c3.998,2.313,7.274,7.98,7.274,12.6V188.479z"/>
<path d="M451.724,188.479c0,4.62-3.275,10.288-7.274,12.6l-50.629,29.232c-3.999,2.313-10.551,2.313-14.549,0l-50.63-29.232
	c-3.998-2.312-7.274-7.98-7.274-12.6v-58.453c0-4.62,3.276-10.287,7.274-12.6l50.63-29.226c3.998-2.313,10.55-2.313,14.549,0
	l50.629,29.226c3.999,2.313,7.274,7.98,7.274,12.6V188.479z"/>
<path d="M526.047,316.238c0,4.62-3.275,10.287-7.274,12.6l-50.624,29.227c-3.998,2.312-10.55,2.312-14.549,0l-50.629-29.227
	c-3.999-2.312-7.274-7.98-7.274-12.6v-58.447c0-4.62,3.275-10.288,7.274-12.6l50.629-29.227c3.999-2.312,10.551-2.312,14.549,0
	l50.624,29.227c3.999,2.312,7.274,7.98,7.274,12.6V316.238z"/>
<path d="M599.766,188.479c0,4.62-3.276,10.288-7.274,12.6l-50.624,29.232c-4.004,2.313-10.545,2.313-14.549,0l-50.63-29.232
	c-4.004-2.312-7.274-7.98-7.274-12.6v-58.453c0-4.62,3.276-10.287,7.274-12.6l50.63-29.226c3.998-2.313,10.551-2.313,14.549,0
	l50.624,29.226c3.998,2.313,7.274,7.98,7.274,12.6V188.479z"/>
<path d="M230.585,569.963c0,4.619-3.27,10.287-7.274,12.6L172.682,611.8c-4.004,2.313-10.55,2.313-14.549,0l-50.624-29.237
	c-3.999-2.312-7.274-7.98-7.274-12.6V511.51c0-4.62,3.276-10.287,7.274-12.601l50.624-29.221c3.999-2.312,10.55-2.312,14.549,0
	l50.629,29.221c3.999,2.313,7.274,7.98,7.274,12.601V569.963z"/>
<path d="M378.006,569.963c0,4.619-3.276,10.287-7.274,12.6l-50.63,29.237c-3.998,2.313-10.551,2.313-14.549,0l-50.624-29.237
	c-3.999-2.312-7.274-7.98-7.274-12.6V511.51c0-4.62,3.276-10.287,7.274-12.601l50.624-29.221c3.998-2.312,10.551-2.312,14.549,0
	l50.63,29.221c3.998,2.313,7.274,7.98,7.274,12.601V569.963z"/>
<path d="M304.304,442.204c0,4.62-3.271,10.287-7.274,12.601l-50.63,29.237c-4.004,2.312-10.545,2.312-14.549,0l-50.624-29.237
	c-3.998-2.313-7.274-7.98-7.274-12.601v-58.453c0-4.62,3.276-10.287,7.274-12.6l50.624-29.232c4.004-2.312,10.55-2.312,14.549,0
	l50.63,29.232c3.998,2.312,7.274,7.979,7.274,12.6V442.204z"/>
<path d="M451.724,442.204c0,4.62-3.275,10.287-7.274,12.601l-50.629,29.237c-3.999,2.312-10.551,2.312-14.549,0l-50.63-29.237
	c-3.998-2.313-7.274-7.98-7.274-12.601v-58.453c0-4.62,3.276-10.287,7.274-12.6l50.63-29.232c3.998-2.312,10.55-2.312,14.549,0
	l50.629,29.232c3.999,2.312,7.274,7.979,7.274,12.6V442.204z"/>
<path d="M526.047,569.963c0,4.619-3.275,10.287-7.274,12.6L468.148,611.8c-3.998,2.313-10.545,2.313-14.549,0l-50.629-29.237
	c-4.004-2.312-7.274-7.98-7.274-12.6V511.51c0-4.62,3.275-10.287,7.274-12.601l50.629-29.221c3.999-2.312,10.551-2.312,14.549,0
	l50.624,29.221c3.999,2.313,7.274,7.98,7.274,12.601V569.963z"/>
<path d="M599.766,442.204c0,4.62-3.276,10.287-7.274,12.601l-50.624,29.237c-4.004,2.312-10.545,2.312-14.549,0l-50.63-29.237
	c-4.004-2.313-7.274-7.98-7.274-12.601v-58.453c0-4.62,3.276-10.287,7.274-12.6l50.63-29.232c3.998-2.312,10.545-2.312,14.549,0
	l50.624,29.232c3.998,2.312,7.274,7.979,7.274,12.6V442.204z"/>
</svg>
