<?xml version="1.0" encoding="utf-8"?>
<!-- Generator: Adobe Illustrator 16.0.0, SVG Export Plug-In . SVG Version: 6.00 Build 0)  -->
<!DOCTYPE svg PUBLIC "-//W3C//DTD SVG 1.1//EN" "http://www.w3.org/Graphics/SVG/1.1/DTD/svg11.dtd">
<svg version="1.1" id="Layer_1" xmlns="http://www.w3.org/2000/svg" xmlns:xlink="http://www.w3.org/1999/xlink" x="0px" y="0px"
	 width="700px" height="700px" viewBox="0 0 700 700" enable-background="new 0 0 700 700" xml:space="preserve">
<g>
	<g>
		<rect x="412.783" y="282.729" width="5.052" height="43.399"/>
	</g>
	<g>
		<rect x="371.91" y="325.763" width="45.925" height="5.053"/>
	</g>
	<g>
		<rect x="239.264" y="282.729" width="47.19" height="5.052"/>
	</g>
	<g>
		<rect x="284.891" y="369.184" width="43.399" height="5.053"/>
	</g>
	<g>
		<polygon points="239.265,284.868 239.265,241.467 244.315,241.468 244.315,284.869 		"/>
	</g>
	<g>
		<rect x="326.11" y="241.468" width="5.054" height="43.4"/>
	</g>
	<g>
		<rect x="238.962" y="371.711" width="5.054" height="43.4"/>
	</g>
	<g>
		<rect x="282.664" y="412.951" width="5.052" height="43.4"/>
	</g>
	<g>
		<rect x="241.79" y="455.986" width="45.927" height="5.053"/>
	</g>
	<polygon points="298.892,314.267 270.887,314.266 270.889,342.312 298.893,342.312 	"/>
	<polygon points="314.268,357.688 314.268,385.733 342.314,385.732 342.312,357.688 	"/>
	<polygon points="342.312,314.267 314.268,314.267 314.268,342.312 342.314,342.312 	"/>
	<polygon points="385.732,342.312 385.733,314.266 357.688,314.267 357.688,342.312 	"/>
	<polygon points="270.888,401.089 270.886,429.135 298.892,429.134 298.893,401.088 	"/>
	<rect x="227.467" y="357.688" width="28.046" height="28.046"/>
	<rect x="227.467" y="401.107" width="28.046" height="28.006"/>
	<polygon points="227.465,444.49 227.467,472.534 255.513,472.535 255.511,444.49 	"/>
	<rect x="401.109" y="270.866" width="28.005" height="28.045"/>
	<polygon points="342.313,255.511 342.313,227.466 314.268,227.465 314.269,255.512 	"/>
	<rect x="357.688" y="227.466" width="28.045" height="28.046"/>
	<polygon points="472.535,255.512 472.534,227.465 444.489,227.465 444.489,255.512 	"/>
	<rect x="357.467" y="270.886" width="28.047" height="28.005"/>
	<polygon points="270.867,298.891 298.912,298.891 298.913,270.885 270.866,270.887 	"/>
	<rect x="227.467" y="227.465" width="28.045" height="28.046"/>
	<rect x="270.886" y="227.465" width="28.006" height="28.045"/>
	<polygon points="255.513,314.267 227.467,314.266 227.465,342.312 255.513,342.312 	"/>
	<circle cx="328.29" cy="284.868" r="14.023"/>
	<circle cx="415.111" cy="241.489" r="14.023"/>
	<path d="M270.867,371.709c-0.001-7.744,6.277-14.021,14.023-14.023c7.744,0.002,14.022,6.279,14.021,14.025
		c0,7.744-6.277,14.022-14.021,14.022C277.145,385.733,270.866,379.455,270.867,371.709z"/>
</g>
</svg>
