<?xml version="1.0" encoding="utf-8"?>
<!-- Generator: Adobe Illustrator 16.0.0, SVG Export Plug-In . SVG Version: 6.00 Build 0)  -->
<!DOCTYPE svg PUBLIC "-//W3C//DTD SVG 1.1//EN" "http://www.w3.org/Graphics/SVG/1.1/DTD/svg11.dtd">
<svg version="1.1" id="Layer_1" xmlns="http://www.w3.org/2000/svg" xmlns:xlink="http://www.w3.org/1999/xlink" x="0px" y="0px"
	 width="700px" height="700px" viewBox="0 0 700 700" enable-background="new 0 0 700 700" xml:space="preserve">
<g>
	<polygon points="300.812,296.987 298.517,294.952 322.36,268.122 497.311,268.122 497.311,271.202 323.741,271.202 	"/>
</g>
<circle cx="86.588" cy="431.48" r="22.381"/>
<circle cx="421.772" cy="304.796" r="22.387"/>
<circle cx="497.305" cy="269.665" r="22.388"/>
<circle cx="561.711" cy="385.796" r="22.387"/>
<circle cx="299.662" cy="295.966" r="22.381"/>
<g>
	<polygon points="365.213,413.125 362.917,411.084 386.761,384.254 561.711,384.254 561.711,387.34 388.136,387.34 	"/>
</g>
<circle cx="364.062" cy="412.104" r="22.388"/>
<g>
	<polygon points="221.685,433.011 86.588,433.011 86.588,429.943 220.416,429.943 347.112,303.259 402.913,303.259 402.913,306.333 
		348.382,306.333 	"/>
</g>
<circle cx="157.838" cy="469.741" r="22.387"/>
<g>
	<polygon points="239.972,471.277 157.838,471.277 157.838,468.203 238.703,468.203 365.381,341.525 509.456,341.525 
		509.456,344.599 366.65,344.599 	"/>
</g>
</svg>
