<?xml version="1.0" encoding="utf-8"?>
<!-- Generator: Adobe Illustrator 16.0.0, SVG Export Plug-In . SVG Version: 6.00 Build 0)  -->
<!DOCTYPE svg PUBLIC "-//W3C//DTD SVG 1.1//EN" "http://www.w3.org/Graphics/SVG/1.1/DTD/svg11.dtd">
<svg version="1.1" id="Layer_1" xmlns="http://www.w3.org/2000/svg" xmlns:xlink="http://www.w3.org/1999/xlink" x="0px" y="0px"
	 width="100px" height="100px" viewBox="0 0 100 100" enable-background="new 0 0 100 100" xml:space="preserve">
<path d="M37.066,88.994l0.156-0.157L37.066,88.994z"/>
<path d="M82.626,0.303l0.292-0.292L82.626,0.303z"/>
<path d="M97.8,19.207l0.373-0.386L97.8,19.207z"/>
<path d="M91.703,13.292l0.867-0.895L91.703,13.292z"/>
<path d="M94.874,16.37l0.577-0.595L94.874,16.37z"/>
<g>
	
		<rect x="30.964" y="70.823" transform="matrix(-0.707 0.7072 -0.7072 -0.707 106.649 100.5314)" fill="#4D4D4D" width="3.073" height="3.068"/>
	
		<rect x="35.247" y="66.541" transform="matrix(-0.7073 0.7069 -0.7069 -0.7073 110.9191 90.2252)" fill="#4D4D4D" width="3.07" height="3.066"/>
	
		<rect x="39.529" y="62.26" transform="matrix(-0.7073 0.7069 -0.7069 -0.7073 115.2063 79.8916)" fill="#4D4D4D" width="3.073" height="3.068"/>
	
		<rect x="43.814" y="57.974" transform="matrix(-0.7071 0.7071 -0.7071 -0.7071 119.497 69.5193)" fill="#4D4D4D" width="3.073" height="3.068"/>
	
		<rect x="53.113" y="38.428" transform="matrix(-0.7075 0.7067 -0.7067 -0.7075 121.5554 29.6135)" fill="#4D4D4D" width="3.073" height="3.067"/>
	<polygon fill="#4D4D4D" points="56.761,35.68 58.933,33.511 61.102,35.677 58.931,37.852 	"/>
	
		<rect x="61.678" y="29.866" transform="matrix(-0.7073 0.7069 -0.7069 -0.7073 130.1211 8.9195)" fill="#4D4D4D" width="3.072" height="3.068"/>
	
		<rect x="65.963" y="25.58" transform="matrix(-0.707 0.7072 -0.7072 -0.707 134.3982 -1.4504)" fill="#4D4D4D" width="3.073" height="3.069"/>
</g>
<g>
	<polygon points="67.224,32.711 37.731,62.204 38.016,58.84 40.665,58.84 66.901,32.602 	"/>
</g>
</svg>
