<?xml version="1.0" encoding="utf-8"?>
<!-- Generator: Adobe Illustrator 16.0.0, SVG Export Plug-In . SVG Version: 6.00 Build 0)  -->
<!DOCTYPE svg PUBLIC "-//W3C//DTD SVG 1.1//EN" "http://www.w3.org/Graphics/SVG/1.1/DTD/svg11.dtd">
<svg version="1.1" id="Layer_1" xmlns="http://www.w3.org/2000/svg" xmlns:xlink="http://www.w3.org/1999/xlink" x="0px" y="0px"
	 width="700px" height="700px" viewBox="0 0 700 700" enable-background="new 0 0 700 700" xml:space="preserve">
<polygon fill="#836ABB" stroke="#000000" stroke-width="2" stroke-miterlimit="10" points="358.334,145.833 358.334,281.833 
	425.334,350.833 425.334,210.833 "/>
<polygon fill="#836ABB" stroke="#000000" stroke-width="2" stroke-miterlimit="10" points="423.834,428 423.834,396 359.834,328 
	359.834,360 "/>
<polygon fill="#836ABB" stroke="#000000" stroke-width="2" stroke-miterlimit="10" points="386.584,465.5 387.584,480.5 
	398.584,480.5 399.584,465 412.584,465 412.584,453.5 397.584,452 397.584,437 387.584,437 387.584,452 371.084,452 371.084,463 
	386.001,462.5 "/>
<path fill="#836ABB" stroke="#000000" stroke-width="2" stroke-miterlimit="10" d="M-630.5,342.5"/>
<polygon fill="#836ABB" stroke="#000000" stroke-width="2" stroke-miterlimit="10" points="425.334,341.333 510.334,256.833 
	510.334,267.833 425.334,350.832 "/>
<polygon fill="#836ABB" stroke="#000000" stroke-width="2" stroke-miterlimit="10" points="227.667,451.666 358.334,316.667 
	358.334,248.333 227.667,385 "/>
</svg>
