<?xml version="1.0" encoding="utf-8"?>
<!-- Generator: Adobe Illustrator 16.0.0, SVG Export Plug-In . SVG Version: 6.00 Build 0)  -->
<!DOCTYPE svg PUBLIC "-//W3C//DTD SVG 1.1//EN" "http://www.w3.org/Graphics/SVG/1.1/DTD/svg11.dtd">
<svg version="1.1" id="Layer_1" xmlns="http://www.w3.org/2000/svg" xmlns:xlink="http://www.w3.org/1999/xlink" x="0px" y="0px"
	 width="100px" height="100px" viewBox="0 0 100 100" enable-background="new 0 0 100 100" xml:space="preserve">
<path d="M37.982,100.006l0.092-0.092L37.982,100.006z"/>
<path d="M102.92,0.286l0.292-0.292L102.92,0.286z"/>
<g>
	
		<rect x="60.154" y="41.748" transform="matrix(-0.7071 0.7071 -0.7071 -0.7071 151.5741 21.4829)" fill="#333333" width="22.367" height="0.769"/>
	
		<rect x="61.235" y="42.826" transform="matrix(-0.7071 0.7071 -0.7071 -0.7071 154.1818 22.5573)" fill="#333333" width="22.367" height="0.772"/>
	
		<rect x="62.313" y="43.905" transform="matrix(-0.7071 0.7071 -0.7071 -0.7071 156.7867 23.6418)" fill="#333333" width="22.367" height="0.774"/>
	
		<rect x="63.393" y="44.985" transform="matrix(-0.7071 0.7071 -0.7071 -0.7071 159.3911 24.7174)" fill="#333333" width="22.367" height="0.773"/>
	
		<rect x="64.471" y="46.062" transform="matrix(-0.7071 0.7071 -0.7071 -0.7071 161.9945 25.7986)" fill="#333333" width="22.366" height="0.774"/>
</g>
<g>
	<polygon fill="#666666" points="61.954,30.088 42.447,49.596 46.817,49.596 50.82,45.593 66.232,45.593 81.462,30.365 	"/>
	<rect x="31.462" y="48.999" fill="#666666" width="1.26" height="5.038"/>
	<rect x="33.945" y="48.999" fill="#666666" width="1.26" height="5.038"/>
</g>
<g>
	<path d="M57.449,33.039l-0.002,0.26L57.449,33.039L57.449,33.039z"/>
	<polygon points="57.419,33.284 23.622,66.346 42.115,47.852 42.115,45.37 54.533,33.127 57.266,33.192 57.266,33.192 	"/>
	<rect x="38.496" y="51.818" width="16.932" height="0.232"/>
	<rect x="36.349" y="53.939" width="19.079" height="0.232"/>
	<rect x="28.977" y="48.999" width="1.261" height="5.038"/>
	<rect x="36.43" y="48.999" width="1.26" height="5.038"/>
</g>
<circle fill="#FFFFFF" stroke="#000000" stroke-miterlimit="10" cx="64.169" cy="25.983" r="2.125"/>
<circle fill="#FFFFFF" stroke="#000000" stroke-miterlimit="10" cx="70.294" cy="25.983" r="2.125"/>
<circle fill="#FFFFFF" stroke="#000000" stroke-miterlimit="10" cx="32.603" cy="62.928" r="2.125"/>
<circle fill="#FFFFFF" stroke="#000000" stroke-miterlimit="10" cx="27.884" cy="67.646" r="2.125"/>
<circle fill="#FFFFFF" stroke="#000000" stroke-miterlimit="10" cx="22.934" cy="72.597" r="2.125"/>
<circle fill="#FFFFFF" stroke="#000000" stroke-miterlimit="10" cx="37.4" cy="58.131" r="2.125"/>
</svg>
